<?xml version="1.0" encoding="UTF-8" standalone="no"?>
<svg
   viewBox="0 0 367.33606 367.33606"
   version="1.1"
   id="svg35"
   sodipodi:docname="favicon.svg"
   width="367.33606"
   height="367.33606"
   inkscape:version="1.1.1 (3bf5ae0d25, 2021-09-20)"
   xmlns:inkscape="http://www.inkscape.org/namespaces/inkscape"
   xmlns:sodipodi="http://sodipodi.sourceforge.net/DTD/sodipodi-0.dtd"
   xmlns:xlink="http://www.w3.org/1999/xlink"
   xmlns="http://www.w3.org/2000/svg"
   xmlns:svg="http://www.w3.org/2000/svg">
  <sodipodi:namedview
     id="namedview37"
     pagecolor="#505050"
     bordercolor="#ffffff"
     borderopacity="1"
     inkscape:pageshadow="0"
     inkscape:pageopacity="0"
     inkscape:pagecheckerboard="1"
     showgrid="false"
     fit-margin-top="0"
     fit-margin-left="0"
     fit-margin-right="0"
     fit-margin-bottom="0"
     inkscape:snap-global="true"
     inkscape:snap-page="true"
     inkscape:object-nodes="false"
     inkscape:snap-bbox="true"
     inkscape:snap-bbox-midpoints="true"
     inkscape:snap-bbox-edge-midpoints="true"
     inkscape:bbox-nodes="true"
     inkscape:bbox-paths="true"
     inkscape:zoom="1.4979167"
     inkscape:cx="31.043115"
     inkscape:cy="205.28512"
     inkscape:window-width="1920"
     inkscape:window-height="1017"
     inkscape:window-x="1358"
     inkscape:window-y="-8"
     inkscape:window-maximized="1"
     inkscape:current-layer="svg35" />
  <defs
     id="defs21">
    <linearGradient
       id="a"
       x1="0.48438001"
       x2="0.48047"
       y1="0.074219003"
       y2="0.81641001">
      <stop
         stop-color="#ff7f00"
         stop-opacity=".996"
         offset=".007813"
         id="stop2" />
      <stop
         stop-color="#bf0000"
         stop-opacity=".996"
         offset="1"
         id="stop4" />
    </linearGradient>
    <linearGradient
       id="e"
       x1="0.48828"
       x2="0.46094"
       y1="0.26561999"
       y2="1">
      <stop
         stop-color="#ff7f00"
         stop-opacity=".996"
         offset=".015625"
         id="stop7" />
      <stop
         stop-color="#bf0000"
         stop-opacity=".996"
         offset=".54688"
         id="stop9" />
      <stop
         stop-color="#bf0000"
         stop-opacity=".996"
         offset="1"
         id="stop11" />
    </linearGradient>
    <linearGradient
       id="d"
       x1="263.61411"
       x2="258.14264"
       y1="98.7379"
       y2="255.57076"
       gradientTransform="matrix(0.63545057,0,0,1.5736865,28.418522,34.852196)"
       gradientUnits="userSpaceOnUse">
      <stop
         stop-color="#ff7f00"
         stop-opacity=".996"
         offset=".015625"
         id="stop14" />
      <stop
         stop-color="#bf0000"
         stop-opacity=".996"
         offset=".54688"
         id="stop16" />
      <stop
         stop-color="#bf0000"
         stop-opacity=".996"
         offset="1"
         id="stop18" />
    </linearGradient>
    <linearGradient
       inkscape:collect="always"
       xlink:href="#a"
       id="linearGradient141"
       x1="263.61411"
       y1="39.471336"
       x2="262.70142"
       y2="212.71646"
       gradientTransform="matrix(0.63545057,0,0,1.5736865,28.418522,34.852196)"
       gradientUnits="userSpaceOnUse" />
    <linearGradient
       inkscape:collect="always"
       xlink:href="#e"
       id="linearGradient143"
       x1="352.90521"
       y1="141.38512"
       x2="349.14688"
       y2="242.33727"
       gradientTransform="matrix(0.66812208,0,0,1.4967325,26.388052,36.413715)"
       gradientUnits="userSpaceOnUse" />
    <linearGradient
       inkscape:collect="always"
       xlink:href="#a"
       id="linearGradient145"
       x1="352.36908"
       y1="115.07403"
       x2="351.8316"
       y2="217.09991"
       gradientTransform="matrix(0.66812208,0,0,1.4967325,26.388052,36.413715)"
       gradientUnits="userSpaceOnUse" />
    <linearGradient
       inkscape:collect="always"
       xlink:href="#e"
       id="linearGradient147"
       x1="417.96893"
       y1="167.34657"
       x2="414.28027"
       y2="266.42798"
       gradientTransform="matrix(0.67453966,0,0,1.4824925,28.418522,34.852196)"
       gradientUnits="userSpaceOnUse" />
    <linearGradient
       inkscape:collect="always"
       xlink:href="#a"
       id="linearGradient149"
       x1="417.44275"
       y1="141.52306"
       x2="416.91522"
       y2="241.65829"
       gradientTransform="matrix(0.67453966,0,0,1.4824925,28.418522,34.852196)"
       gradientUnits="userSpaceOnUse" />
    <linearGradient
       inkscape:collect="always"
       xlink:href="#e"
       id="linearGradient151"
       x1="347.60419"
       y1="163.80992"
       x2="342.70615"
       y2="295.37616"
       gradientTransform="matrix(0.7478304,0,0,1.3372016,28.418522,34.852196)"
       gradientUnits="userSpaceOnUse" />
    <linearGradient
       inkscape:collect="always"
       xlink:href="#a"
       id="linearGradient153"
       x1="346.90549"
       y1="129.5199"
       x2="346.20502"
       y2="262.4855"
       gradientTransform="matrix(0.7478304,0,0,1.3372016,28.418522,34.852196)"
       gradientUnits="userSpaceOnUse" />
  </defs>
  <g
     stroke-width="0"
     id="g33"
     transform="translate(-28.418522,-34.852196)">
    <text
       x="71"
       y="231"
       font-family="Arial"
       font-size="24px"
       opacity="0.5"
       stroke="#096388"
       stroke-dasharray="none"
       stroke-linejoin="null"
       text-anchor="middle"
       id="text23" />
    <path
       d="m 187,43.5 c 32.567,40.133 -16.167,101 -76,203.5 -59.833,102.5 74,154.17 84.667,155.17 10.667,1 -52,-39.167 -32.167,-100.17 C 183.333,241 231.033,206.467 243,159.9 254.967,113.333 154.433,3.37 187,43.5 Z"
       fill="url(#d)"
       stroke="url(#a)"
       stroke-linejoin="round"
       id="path25"
       style="fill:url(#d);stroke:url(#linearGradient141)" />
    <g
       fill="url(#e)"
       stroke="url(#a)"
       stroke-linejoin="null"
       id="g31"
       style="fill:url(#linearGradient151);stroke:url(#linearGradient153)">
      <path
         transform="rotate(-3.264,236.86,259.84)"
         d="m 268.56,161.45 c 2.8655,6.7754 3.6942,18.909 -0.71606,32.924 -4.4103,14.014 -10.06,24.309 -22.15,41.006 -12.09,16.697 -23.67,27.389 -47.304,63.122 -23.633,35.733 17.157,74.648 9.8644,61.651 -7.2926,-12.997 5.298,-36.78 17.459,-52.519 12.161,-15.738 20.191,-22.921 32.048,-38.12 11.857,-15.199 23.687,-39.454 24.555,-53.206 0.86816,-13.752 0.95346,-18.142 -3.6351,-33.244 -4.58856,-15.102 -15.853,-35.165 -10.122,-21.614 z"
         id="path27"
         style="fill:url(#linearGradient143);stroke:url(#linearGradient145)" />
      <path
         d="m 241.62,393.22 c -5.1723,9.1626 -6.6482,-19.291 2.5574,-43.922 9.2056,-24.631 38.264,-46.296 50.758,-69.597 12.494,-23.301 20.385,-58.537 10.368,-77.282 -10.017,-18.745 1.7688,2.1575 10.212,15.57 8.4437,13.413 13.196,23.27 12.985,45.203 -0.21112,21.933 -5.9426,47.65 -43.783,81.278 -37.841,33.628 -37.925,39.587 -43.097,48.75 z"
         stroke-dasharray="none"
         id="path29"
         style="fill:url(#linearGradient147);stroke:url(#linearGradient149)" />
    </g>
  </g>
</svg>
